<svg xmlns="http://www.w3.org/2000/svg" viewBox="0 0 48 48">
  <rect width="48" height="48" rx="10" fill="#030710"/>
  <rect x="13" y="13" width="22" height="22" rx="3" fill="rgba(0,229,195,0.18)" stroke="#00e5c3" stroke-width="1.5"/>
  <rect x="18" y="18" width="12" height="12" rx="1.5" fill="rgba(0,229,195,0.3)"/>
  <circle cx="24" cy="24" r="2.4" fill="#00e5c3"/>
  <g stroke="#00e5c3" stroke-width="1.6" stroke-linecap="round">
    <line x1="9" y1="18" x2="13" y2="18"/>
    <line x1="9" y1="24" x2="13" y2="24"/>
    <line x1="9" y1="30" x2="13" y2="30"/>
    <line x1="35" y1="18" x2="39" y2="18"/>
    <line x1="35" y1="24" x2="39" y2="24"/>
    <line x1="35" y1="30" x2="39" y2="30"/>
    <line x1="18" y1="9" x2="18" y2="13"/>
    <line x1="24" y1="9" x2="24" y2="13"/>
    <line x1="30" y1="9" x2="30" y2="13"/>
    <line x1="18" y1="35" x2="18" y2="39"/>
    <line x1="24" y1="35" x2="24" y2="39"/>
    <line x1="30" y1="35" x2="30" y2="39"/>
  </g>
</svg>
